<svg xmlns="http://www.w3.org/2000/svg" width="32" height="32" id="computer"><path fill="#231f20" d="M16 0C7.17 0 0 7.17 0 16s7.17 16 16 16 16-7.17 16-16S24.83 0 16 0zm0 1c8.29 0 15 6.71 15 15s-6.71 15-15 15S1 24.29 1 16 7.71 1 16 1zm-5.654 9C9.605 10 9 10.604 9 11.346v3.31C9 15.397 9.605 16 10.346 16H12v1h-1v1h3v-1h-1v-1h1.654c.741 0 1.346-.604 1.346-1.346v-3.308c0-.742-.605-1.346-1.346-1.346h-4.308zm0 1h4.31c.19 0 .344.156.344.346v3.31a.345.345 0 0 1-.346.344h-4.308a.346.346 0 0 1-.346-.346v-3.308c0-.19.155-.346.346-.346zM17 11v1h1.654c.191 0 .346.156.346.346V14h1v-1.654c0-.742-.605-1.346-1.346-1.346H17zm.346 4c-.741 0-1.346.604-1.346 1.346v3.31c0 .741.605 1.344 1.346 1.344H19v1h-1v1h3v-1h-1v-1h1.654c.741 0 1.346-.604 1.346-1.346v-3.308c0-.742-.605-1.346-1.346-1.346h-4.308zm0 1h4.31c.19 0 .344.156.344.346v3.308c0 .19-.155.346-.346.346h-4.308a.346.346 0 0 1-.346-.346v-3.308c0-.19.155-.346.346-.346zM12 19v2.654c0 .742.605 1.346 1.346 1.346H17v-1h-3.654a.346.346 0 0 1-.346-.346V19h-1z"></path></svg>