<svg xmlns="http://www.w3.org/2000/svg" viewBox="0 0 48 48" id="innovation"><path fill="#0c0c0c" d="M24 0C10.767 0 0 10.767 0 24s10.767 24 24 24 24-10.767 24-24S37.233 0 24 0zm0 47C11.318 47 1 36.682 1 24S11.318 1 24 1s23 10.318 23 23-10.318 23-23 23z"></path><path fill="#0c0c0c" d="M24 12a.5.5 0 0 0 .5-.5v-2a.5.5 0 0 0-1 0v2a.5.5 0 0 0 .5.5zm12.5 9.5h-2a.5.5 0 0 0 0 1h2a.5.5 0 0 0 0-1zM14 22a.5.5 0 0 0-.5-.5h-2a.5.5 0 0 0 0 1h2a.5.5 0 0 0 .5-.5zm13.827-9.239a.497.497 0 0 0 .653-.271l.766-1.848a.5.5 0 1 0-.924-.382l-.766 1.848a.5.5 0 0 0 .271.653zm7.913 13.561-1.848-.766a.5.5 0 0 0-.382.924l1.848.766a.497.497 0 0 0 .653-.271.5.5 0 0 0-.271-.653zm-23.48-8.644 1.848.766a.497.497 0 0 0 .653-.271.5.5 0 0 0-.271-.653l-1.848-.766a.5.5 0 0 0-.382.924zm19.165-2.603a.502.502 0 0 0 .354-.146l1.414-1.414a.5.5 0 0 0-.707-.707l-1.414 1.414a.5.5 0 0 0 .353.853zM16.222 29.071l-1.414 1.414a.5.5 0 0 0 .708.707l1.414-1.414a.5.5 0 0 0-.708-.707zm15.556 0a.5.5 0 0 0-.707.707l1.414 1.414a.498.498 0 0 0 .708 0 .5.5 0 0 0 0-.707l-1.415-1.414zM16.222 14.929a.498.498 0 0 0 .708 0 .5.5 0 0 0 0-.707l-1.414-1.414a.5.5 0 0 0-.707.707l1.413 1.414zm17.017 3.244a.501.501 0 0 0 .653.271l1.848-.766a.5.5 0 0 0-.382-.924l-1.848.766a.499.499 0 0 0-.271.653zm-18.478 7.654a.502.502 0 0 0-.653-.271l-1.848.766a.5.5 0 0 0 .382.924l1.848-.766a.499.499 0 0 0 .271-.653zm4.759-13.336a.501.501 0 0 0 .653.271.5.5 0 0 0 .271-.653l-.766-1.848a.5.5 0 0 0-.924.382l.766 1.848zM24 13c-4.962 0-9 4.038-9 9a9.02 9.02 0 0 0 5 8.056V34.5a.5.5 0 0 0 .5.5h.5v1.5a.5.5 0 0 0 .5.5h.5v1.5a.5.5 0 0 0 1 0V37h2v1.5a.5.5 0 0 0 1 0V37h.5a.5.5 0 0 0 .5-.5V35h.5a.5.5 0 0 0 .5-.5v-4.444A9.02 9.02 0 0 0 33 22c0-4.962-4.038-9-9-9zm2 23h-4v-1h4v1zm-2.532-6.176-1.489-3.971c.008-.034.021-.066.021-.103a.75.75 0 0 1 1.5 0 .5.5 0 0 0 1 0 .75.75 0 0 1 1.5 0c0 .037.013.069.021.103l-1.489 3.971A.503.503 0 0 0 24.5 30v4h-1v-4c0-.06-.011-.12-.032-.176zm3.825-.54a.5.5 0 0 0-.293.456V34h-1.5v-3.909l1.468-3.915a.485.485 0 0 0 .006-.301c.012-.041.026-.081.026-.125 0-.965-.785-1.75-1.75-1.75-.49 0-.932.204-1.25.529A1.745 1.745 0 0 0 22.75 24c-.965 0-1.75.785-1.75 1.75 0 .044.014.084.025.125a.492.492 0 0 0 .006.301l1.468 3.915V34H21v-4.26a.502.502 0 0 0-.293-.456A8.015 8.015 0 0 1 16 22c0-4.411 3.589-8 8-8s8 3.589 8 8a8.015 8.015 0 0 1-4.707 7.284z"></path></svg>